<svg width="12" height="3" viewBox="0 0 12 3" fill="none" xmlns="http://www.w3.org/2000/svg">
<path d="M1.66675 2.90196C2.21903 2.90196 2.66675 2.43515 2.66675 1.8593C2.66675 1.28346 2.21903 0.81665 1.66675 0.81665C1.11446 0.81665 0.666748 1.28346 0.666748 1.8593C0.666748 2.43515 1.11446 2.90196 1.66675 2.90196Z" fill="#27272A"/>
<path d="M6.00008 2.90196C6.55237 2.90196 7.00008 2.43515 7.00008 1.8593C7.00008 1.28346 6.55237 0.81665 6.00008 0.81665C5.4478 0.81665 5.00008 1.28346 5.00008 1.8593C5.00008 2.43515 5.4478 2.90196 6.00008 2.90196Z" fill="#27272A"/>
<path d="M11.3334 1.8593C11.3334 2.43515 10.8857 2.90196 10.3334 2.90196C9.78113 2.90196 9.33342 2.43515 9.33342 1.8593C9.33342 1.28346 9.78113 0.81665 10.3334 0.81665C10.8857 0.81665 11.3334 1.28346 11.3334 1.8593Z" fill="#27272A"/>
</svg>
