<svg width="24" height="25" viewBox="0 0 24 25" fill="none" xmlns="http://www.w3.org/2000/svg">
<g clip-path="url(#clip0_3_1644)">
<path d="M24 12.6429C24 6.11011 18.6274 0.81428 12 0.81428C5.37258 0.81428 0 6.11011 0 12.6429C0 18.5468 4.38823 23.4404 10.125 24.3277V16.062H7.07813V12.6429H10.125V10.0369C10.125 7.07233 11.9165 5.43482 14.6576 5.43482C15.9705 5.43482 17.3438 5.66584 17.3438 5.66584V8.57678H15.8306C14.3399 8.57678 13.875 9.48857 13.875 10.424V12.6429H17.2031L16.6711 16.062H13.875V24.3277C19.6118 23.4404 24 18.5468 24 12.6429Z" fill="#1877F2"/>
<path d="M16.6711 16.0621L17.2031 12.6429H13.875V10.424C13.875 9.48859 14.3399 8.57679 15.8306 8.57679H17.3438V5.66586C17.3438 5.66586 15.9705 5.43483 14.6576 5.43483C11.9165 5.43483 10.125 7.07235 10.125 10.0369V12.6429H7.07812V16.0621H10.125V24.3277C10.7359 24.4222 11.3621 24.4714 12 24.4714C12.6379 24.4714 13.2641 24.4222 13.875 24.3277V16.0621H16.6711Z" fill="white"/>
</g>
<defs>
<clipPath id="clip0_3_1644">
<rect width="24" height="23.6571" fill="white" transform="translate(0 0.814301)"/>
</clipPath>
</defs>
</svg>
