<svg width="22" height="23" viewBox="0 0 22 23" fill="none" xmlns="http://www.w3.org/2000/svg">
<path d="M20.68 11.8687C20.68 11.1639 20.6158 10.4863 20.4967 9.83569H11V13.6804H16.4267C16.1929 14.9228 15.4825 15.9755 14.4146 16.6802V19.1741H17.6733C19.58 17.4438 20.68 14.8957 20.68 11.8687Z" fill="#4285F4"/>
<path d="M11 21.5821C13.7225 21.5821 16.005 20.6921 17.6733 19.1741L14.4146 16.6803C13.5117 17.2766 12.3567 17.629 11 17.629C8.37375 17.629 6.15083 15.8806 5.35792 13.5313H1.98917V16.1065C3.64833 19.3548 7.05833 21.5821 11 21.5821Z" fill="#34A853"/>
<path d="M5.35791 13.5313C5.15625 12.9349 5.04167 12.2979 5.04167 11.6428C5.04167 10.9878 5.15625 10.3507 5.35791 9.75438V7.1792H1.98916C1.28333 8.56425 0.916042 10.0929 0.916665 11.6428C0.916665 13.2467 1.30625 14.7647 1.98916 16.1065L5.35791 13.5313Z" fill="#FBBC05"/>
<path d="M11 5.65668C12.4804 5.65668 13.8096 6.15816 14.8546 7.14305L17.7467 4.29228C16.0004 2.68845 13.7179 1.70355 11 1.70355C7.05833 1.70355 3.64833 3.93086 1.98917 7.1792L5.35792 9.75437C6.15083 7.40509 8.37375 5.65668 11 5.65668Z" fill="#EA4335"/>
</svg>
