<svg width="24" height="24" viewBox="0 0 24 24" fill="none" xmlns="http://www.w3.org/2000/svg">
<path d="M17.7098 2.79065C17.1108 2.58965 16.4808 2.50065 15.8498 2.50065C14.4598 2.49065 13.1108 2.95065 11.9998 3.79965C11.9098 3.73065 11.7998 3.66965 11.6998 3.61065C11.5998 3.54965 11.4198 3.40065 11.2698 3.32065L10.8898 3.15065C10.6898 3.04065 10.4808 2.96065 10.2598 2.88965C10.2398 2.87065 10.2098 2.84965 10.1698 2.83065H10.1108C9.5198 2.62965 8.9098 2.51965 8.2798 2.50065H8.1698C7.8898 2.50065 7.6108 2.51965 7.3298 2.56065H7.2098C6.9098 2.59965 6.6108 2.66965 6.3208 2.76965C2.5898 3.99065 1.2598 8.04065 2.3898 11.5806C3.0298 13.3896 4.0608 15.0306 5.4008 16.3796C7.3498 18.2596 9.4808 19.9196 11.7698 21.3396L12.0298 21.5006L12.2798 21.3496C14.5608 19.9196 16.6798 18.2596 18.6108 16.3896C19.9598 15.0406 20.9898 13.3896 21.6198 11.5806C22.7308 8.04065 21.4008 3.99065 17.7098 2.79065Z" fill="#FB9116"/>
</svg>
