<svg width="14" height="15" viewBox="0 0 14 15" fill="none" xmlns="http://www.w3.org/2000/svg">
<path d="M9.65328 4.74544C9.91363 5.01689 9.91363 5.45701 9.65328 5.72846L7.94286 7.51183L9.65328 9.2952C9.91363 9.56666 9.91363 10.0068 9.65328 10.2782C9.39293 10.5497 8.97082 10.5497 8.71047 10.2782L7.00006 8.49486L5.28964 10.2782C5.02929 10.5497 4.60718 10.5497 4.34683 10.2782C4.08648 10.0068 4.08648 9.56666 4.34683 9.2952L6.05725 7.51183L4.34683 5.72846C4.08648 5.45701 4.08648 5.01689 4.34683 4.74544C4.60718 4.47399 5.02929 4.47399 5.28964 4.74544L7.00006 6.52881L8.71047 4.74544C8.97082 4.47399 9.39293 4.47399 9.65328 4.74544Z" fill="#27272A"/>
<path fill-rule="evenodd" clip-rule="evenodd" d="M7.00004 0.560791C3.31814 0.560791 0.333374 3.67287 0.333374 7.51182C0.333374 11.3508 3.31814 14.4628 7.00004 14.4628C10.6819 14.4628 13.6667 11.3508 13.6667 7.51182C13.6667 3.67287 10.6819 0.560791 7.00004 0.560791ZM1.66671 7.51182C1.66671 4.44066 4.05452 1.951 7.00004 1.951C9.94556 1.951 12.3334 4.44066 12.3334 7.51182C12.3334 10.583 9.94556 13.0726 7.00004 13.0726C4.05452 13.0726 1.66671 10.583 1.66671 7.51182Z" fill="#27272A"/>
</svg>
